M48
; DRILL file {KiCad (5.1.4-0-10_14)} date 2020 January 04, Saturday 12:28:31
; FORMAT={-:-/ absolute / metric / decimal}
; #@! TF.CreationDate,2020-01-04T12:28:31+09:00
; #@! TF.GenerationSoftware,Kicad,Pcbnew,(5.1.4-0-10_14)
; #@! TF.FileFunction,Plated,1,2,PTH
FMAT,2
METRIC
T1C0.400
T2C0.700
T3C0.750
T4C0.762
T5C0.800
T6C0.950
T7C1.000
T8C1.100
%
G90
G05
T1
X37.465Y-173.99
X39.37Y-161.925
X44.45Y-165.735
X47.625Y-162.65
X53.975Y-128.27
X65.405Y-160.655
X65.405Y-165.735
X67.313Y-145.278
X69.85Y-159.766
X70.396Y-149.428
X70.404Y-148.369
X70.485Y-155.575
X71.12Y-147.32
X71.374Y-160.274
X72.39Y-163.195
X74.93Y-179.07
X76.2Y-114.3
X76.2Y-119.38
X76.2Y-140.97
X77.47Y-114.3
X77.47Y-181.61
X78.74Y-154.773
X80.01Y-123.825
X80.01Y-163.195
X80.01Y-171.45
X81.28Y-154.94
X81.28Y-161.29
X81.28Y-182.88
X83.185Y-127.0
X83.185Y-149.86
X83.82Y-162.052
X84.455Y-144.145
X85.09Y-148.59
X85.09Y-182.88
X88.265Y-160.02
X90.17Y-152.4
X90.17Y-166.37
X90.17Y-170.18
X90.17Y-172.72
X91.44Y-173.99
X94.615Y-174.625
X94.615Y-180.975
X96.52Y-168.275
X96.52Y-172.72
X98.425Y-109.22
X100.965Y-111.76
X102.87Y-100.33
X107.95Y-161.29
X118.745Y-162.56
T2
X101.292Y-107.846
X105.93Y-101.801
X103.672Y-109.672
X108.31Y-103.627
X49.17Y-103.627
X53.808Y-109.672
X74.93Y-105.41
X82.55Y-105.41
X51.55Y-101.801
X56.188Y-107.846
T3
X39.37Y-159.385
X40.64Y-159.385
X41.91Y-159.385
T4
X77.47Y-93.69
X77.47Y-97.79
X80.01Y-93.69
X80.01Y-97.79
X77.47Y-95.74
X77.47Y-99.84
X80.01Y-95.74
X80.01Y-99.84
X58.144Y-98.538
X59.877Y-102.253
X60.446Y-97.464
X62.179Y-101.18
X59.011Y-100.395
X60.743Y-104.111
X61.313Y-99.322
X63.045Y-103.038
X108.458Y-113.106
X110.091Y-115.051
X111.599Y-110.47
X113.232Y-112.416
X110.029Y-111.788
X111.661Y-113.734
X113.169Y-109.152
X114.802Y-111.098
X94.435Y-103.038
X96.167Y-99.322
X96.737Y-104.111
X97.603Y-102.253
X95.301Y-101.18
X97.034Y-97.464
X99.336Y-98.538
X69.85Y-165.1
X74.93Y-165.1
X80.01Y-165.1
X85.09Y-165.1
X87.63Y-165.1
X98.469Y-100.395
X42.678Y-111.098
X44.311Y-109.152
X47.451Y-111.788
X44.248Y-112.416
X45.881Y-110.47
X47.389Y-115.051
X49.022Y-113.106
X72.39Y-165.1
X77.47Y-165.1
X82.55Y-165.1
X71.12Y-111.76
X71.12Y-114.3
X71.12Y-116.84
X71.12Y-119.38
X71.12Y-121.92
X71.12Y-124.46
X71.12Y-127.0
X45.819Y-113.734
X71.12Y-129.54
X86.36Y-111.76
X86.36Y-114.3
X86.36Y-116.84
X86.36Y-119.38
X86.36Y-121.92
X86.36Y-124.46
X86.36Y-127.0
X86.36Y-129.54
T5
X41.5Y-166.72
X41.5Y-168.72
X41.5Y-170.72
X41.5Y-172.72
X41.5Y-174.72
X41.5Y-176.72
X41.5Y-178.72
X41.5Y-180.72
X41.5Y-182.72
X41.5Y-184.72
X63.5Y-166.72
X63.5Y-168.72
X63.5Y-170.72
X63.5Y-172.72
X63.5Y-174.72
X63.5Y-176.72
X63.5Y-178.72
X63.5Y-180.72
X63.5Y-182.72
X63.5Y-184.72
T6
X33.02Y-167.76
X33.02Y-170.26
X33.02Y-172.76
X33.02Y-175.26
T7
X119.38Y-166.37
X121.92Y-166.37
X124.46Y-166.37
X111.76Y-180.34
X50.8Y-119.38
X53.34Y-119.38
X55.88Y-119.38
X58.42Y-119.38
X60.96Y-119.38
X63.5Y-119.38
X111.76Y-182.88
X111.76Y-185.42
X93.98Y-119.38
X96.52Y-119.38
X82.55Y-185.42
X80.01Y-185.42
X85.09Y-185.42
X87.63Y-185.42
X99.06Y-119.38
X101.6Y-119.38
X106.68Y-119.38
X69.85Y-185.42
X72.39Y-185.42
X74.93Y-185.42
X77.47Y-185.42
X123.19Y-172.72
X123.19Y-175.22
X104.14Y-119.38
T8
X97.64Y-180.92
X97.64Y-185.42
X104.14Y-180.92
X104.14Y-185.42
T0
M30
